<svg width="720" height="480" viewBox="0 0 720 480" xmlns="http://www.w3.org/2000/svg">
  <defs>
    <linearGradient id="sky" x1="0" y1="0" x2="0" y2="1">
      <stop offset="0%" stop-color="#a8d8ff"/>
      <stop offset="100%" stop-color="#f7f9ff"/>
    </linearGradient>
    <linearGradient id="sea" x1="0" y1="0" x2="0" y2="1">
      <stop offset="0%" stop-color="#2c6fb2"/>
      <stop offset="100%" stop-color="#1d4f8c"/>
    </linearGradient>
    <linearGradient id="sunset" x1="0" y1="0" x2="1" y2="1">
      <stop offset="0%" stop-color="#f3c46f"/>
      <stop offset="100%" stop-color="#f5834a"/>
    </linearGradient>
    <linearGradient id="stone" x1="0" y1="0" x2="0" y2="1">
      <stop offset="0%" stop-color="#ead5aa"/>
      <stop offset="100%" stop-color="#d1b48c"/>
    </linearGradient>
  </defs>
  <rect width="720" height="320" fill="url(#sky)"/>
  <rect y="320" width="720" height="160" fill="url(#sea)"/>
  <ellipse cx="110" cy="160" rx="60" ry="58" fill="url(#sunset)" opacity="0.9"/>
  <path d="M0 320 Q80 290 160 320 T320 320 T480 320 T640 320 T720 320 V480 H0 Z" fill="#1a5a96" opacity="0.4"/>
  <g transform="translate(320,120)">
    <path d="M0 0 H120 L140 180 H-20 Z" fill="url(#stone)"/>
    <rect x="20" y="-40" width="80" height="40" fill="#d9c08f"/>
    <rect x="46" y="-70" width="28" height="30" fill="#d9c08f"/>
    <rect x="34" y="20" width="20" height="32" fill="#c3aa7d"/>
    <rect x="78" y="20" width="20" height="32" fill="#c3aa7d"/>
    <rect x="20" y="68" width="80" height="12" fill="#c3aa7d"/>
    <rect x="20" y="96" width="80" height="12" fill="#c3aa7d"/>
    <rect x="-16" y="140" width="172" height="16" fill="#b99d70"/>
    <rect x="30" y="-92" width="60" height="22" fill="#d9c08f"/>
    <rect x="44" y="-116" width="32" height="24" fill="#d9c08f"/>
    <rect x="52" y="-136" width="16" height="20" fill="#d9c08f"/>
  </g>
  <path d="M560 220 h60 v120 h-60 z" fill="#d5c6a1"/>
  <path d="M548 208 h84 v16 h-84 z" fill="#c0ac85"/>
  <rect x="572" y="180" width="32" height="28" fill="#d5c6a1"/>
  <rect x="580" y="160" width="16" height="20" fill="#d5c6a1"/>
  <circle cx="590" cy="204" r="6" fill="#c0ac85"/>
  <g opacity="0.6">
    <path d="M60 360 q80 -40 160 0 t160 0 t160 0 t160 0 v120 H60 Z" fill="#1c5d99"/>
  </g>
  <path d="M0 300 C60 320 120 310 180 300 C240 290 300 280 360 294 C420 308 480 340 540 334 C600 328 660 288 720 300 V320 C660 308 600 332 540 338 C480 344 420 316 360 302 C300 288 240 298 180 308 C120 318 60 320 0 308 Z" fill="rgba(255,255,255,0.35)"/>
</svg>
